<svg width="37" height="37" viewBox="0 0 37 37" fill="none" xmlns="http://www.w3.org/2000/svg">
<path d="M18.4999 3.0835C9.98992 3.0835 3.08325 9.99016 3.08325 18.5002C3.08325 27.0102 9.98992 33.9168 18.4999 33.9168C27.0099 33.9168 33.9166 27.0102 33.9166 18.5002C33.9166 9.99016 27.0099 3.0835 18.4999 3.0835ZM18.4999 9.25016C21.4753 9.25016 23.8958 11.6706 23.8958 14.646C23.8958 17.6214 21.4753 20.0418 18.4999 20.0418C15.5245 20.0418 13.1041 17.6214 13.1041 14.646C13.1041 11.6706 15.5245 9.25016 18.4999 9.25016ZM18.4999 30.8335C15.3703 30.8335 11.6703 29.5693 9.03409 26.3935C11.7345 24.2748 15.0676 23.1233 18.4999 23.1233C21.9323 23.1233 25.2654 24.2748 27.9658 26.3935C25.3295 29.5693 21.6295 30.8335 18.4999 30.8335Z" fill="#C59407"/>
</svg>
