<?xml version="1.0" encoding="UTF-8"?><svg id="Layer_1" xmlns="http://www.w3.org/2000/svg" viewBox="0 0 175.3 62.87"><defs><style>.cls-1{fill-rule:evenodd;}</style></defs><path class="cls-1" d="M28.88,30.85c4.81-1.29,11.6-4.64,11.6-12.81,0-3.95-1.72-7.73-4.81-9.8-2.67-1.89-6.45-2.92-12.89-2.92H.69v2.41c6.87,.52,7.22,1.03,7.22,8.17V50.54c0,7.22-.52,7.73-7.91,8.25v2.41H18.99c6.79,0,12.46-1.03,16.85-3.44,5.07-2.84,8.25-7.22,8.25-12.98,0-8.6-6.7-12.38-15.21-13.67v-.26Zm125.41,30.34h-19.17v-2.23c5.41-.52,6.19-1.03,6.19-6.7V11.6c0-5.85-.52-6.1-5.93-6.53V3.01c4.47-.52,9.8-1.98,12.72-3.01V39.97h1.64c3.5,0,5.78-.3,7.49-1.67,2.68-2.06,3.78-4.43,3.78-8.14,0-4.51-1.75-7.3-4.34-8.79l.3-.68,4.35-1.51c.51,.25,1.04,.54,1.54,.87,2.75,1.79,4.54,4.88,4.54,9,0,5.91-3.64,9.55-8.73,11.75,1.17,2.27,4.05,6.87,6.12,9.96,2.47,3.57,3.85,5.36,5.57,7.15,1.85,2.06,3.44,2.82,4.95,3.23l-.13,.83c-.51,.59-1.1,.88-2.35,.89h-.2c-5.21-.28-9.29-1.79-12.38-6.26-2.4-3.37-4.88-7.63-6.94-11-1.17-1.92-2.53-2.75-4.66-2.75h-.54s0,9.38,0,9.38c0,5.67,.69,6.19,6.19,6.7v2.23ZM84.03,12.76c.04-.1-.14-.26-.36-.26-.08,0-.14,.02-.18,.08-.73,1.56-2.47,2.68-4.03,2.68h-2.15c-.51,0-1.14-.2-1.14-1.16v-4.85h2.49c1.03,0,1.6,.26,1.84,2.17,0,.08,.12,.16,.28,.16,.14,0,.28-.08,.28-.16,0-.99-.12-1.52-.12-2.45s.12-1.44,.12-2.43c0-.1-.14-.16-.28-.16-.16,0-.28,.06-.28,.16-.24,1.91-.81,2.07-1.84,2.07h-2.49V4.22c0-.97,.63-1.18,1.14-1.18h1.99c1.24,0,2.55,.49,3.12,2.33,.02,.06,.1,.14,.22,.14,.22,0,.37-.1,.34-.24-.32-1.07-.49-1.89-.65-2.98-1.24,.06-3.79,.12-5.11,.12s-3.85-.06-5.09-.12c-.1,0-.16,.14-.16,.28,0,.16,.06,.28,.16,.28,1.91,.24,2.03,.65,2.03,1.68V13.81c0,1.01-.12,1.44-2.03,1.66-.1,.02-.16,.12-.16,.28s.06,.28,.16,.28c1.24-.04,3.99-.12,5.29-.12s4.06,.08,5.31,.12c.39-1.22,.79-2.17,1.3-3.26Zm7.22,.71c0-2.39-4.34-2.47-4.34-4.3,0-.85,.47-1.34,1.54-1.34,.83,0,1.44,.69,1.58,1.62,.02,.1,.14,.16,.28,.16,.16,0,.3-.08,.28-.16-.06-.59-.1-1.28-.12-1.97-.39,0-1.24-.28-2.11-.28-1.58,0-3.02,1.1-3.02,2.53,0,2.9,4.26,2.49,4.26,4.42,0,.95-.55,1.54-1.56,1.54s-1.99-.89-2.29-1.81c-.02-.1-.14-.16-.28-.16s-.3,.08-.28,.16c.1,.51,.28,1.4,.36,2.09,.59,0,1.6,.35,2.47,.35,1.74,0,3.24-1.18,3.24-2.84Zm7.14-5.31c0-.3-.1-.53-.26-.53h-2.9l.08-1.89c0-.08-.14-.16-.28-.16-.16,0-.24,.1-.28,.16-.61,.89-1.46,1.74-2.39,2.29-.08,.04-.18,.18-.18,.3s.08,.26,.22,.26h.75c.16,0,.24,.14,.24,.28l-.04,4.79c-.04,1.48,.87,2.59,2.47,2.59,1.01,0,1.68-.36,2.29-.87,.06-.06,.1-.14,.1-.22,0-.18-.14-.37-.24-.32-.43,.26-.83,.37-1.46,.37-.93,0-1.32-.61-1.32-1.86v-4.74l2.94,.08c.16,0,.26-.22,.26-.53Zm6.09,3.63l-.08,2.64c-.26,.55-1.09,.91-1.72,.91-.69,0-1.08-.51-1.08-1.4,0-1.24,1.4-1.82,2.88-2.15Zm3.43,3.35c0-.24-.2-.41-.3-.33-.24,.22-.49,.39-.77,.39-.3,0-.69-.16-.67-1.11l.14-4.46c.06-1.64-1.07-2.45-2.39-2.45-1.52,0-3.95,1.38-3.95,2.43,0,.43,.32,.69,.71,.69,.63,0,1.16-.41,1.18-1.34,.02-.61,.69-.99,1.4-.99,.75,0,1.3,.57,1.28,1.6l-.06,1.54c-1.28,.33-4.79,1.3-4.79,3.28,0,1.03,.77,1.91,2.01,1.91,1.12,0,2.11-.41,2.76-1.09,.2,.61,.79,1.01,1.52,1.01,.77,0,1.38-.37,1.83-.91,.06-.06,.06-.1,.08-.18Zm6.35-6.99c0-.3-.1-.53-.26-.53h-2.9l.08-1.89c0-.08-.14-.16-.28-.16-.16,0-.24,.1-.28,.16-.61,.89-1.46,1.74-2.39,2.29-.08,.04-.18,.18-.18,.3s.08,.26,.22,.26h.75c.16,0,.24,.14,.24,.28l-.04,4.79c-.04,1.48,.87,2.59,2.47,2.59,1.01,0,1.68-.36,2.29-.87,.06-.06,.1-.14,.1-.22,0-.18-.14-.37-.24-.32-.43,.26-.83,.37-1.46,.37-.93,0-1.32-.61-1.32-1.86v-4.74l2.94,.08c.16,0,.26-.22,.26-.53Zm8.97,2.25c0-1.3-1.24-3.22-3.61-3.22-2.6,0-4.2,2.23-4.2,4.62,0,2.51,1.82,4.5,4.2,4.5,1.68,0,2.86-1.12,3.49-2.05,.04-.06,.06-.1,.06-.16,0-.28-.24-.43-.3-.34-.51,.67-1.52,1.32-2.56,1.32-1.76,0-2.9-1.09-2.9-3.3,0-.37,.02-.75,.06-1.11h5.41c.22,0,.36-.1,.36-.28Zm-1.8-.87c0,.32-.16,.49-1.14,.51l-2.74,.08c.24-1.24,.97-2.31,2.07-2.31s1.82,.77,1.82,1.72Zm11.39,39.69c-3.25,4.33-5.87,5.83-9.51,6.48-4.74,.84-13.33-.96-15.4-12.72-1.57-8.89,2.52-14.41,8.11-15.39,2.96-.52,6.12,.06,9.08,1.98,.88,.54,1.35,.72,1.77,.65,.93-.16,2.47-2.35,2.15-4.13-.16-.93-.55-1.65-1.82-2.39-1.55-.86-4.54-1.47-7.92-.87-3.3,.58-8.21,2.78-12.01,6.94-4.89,5.4-6.76,10.93-5.61,17.45,1.6,9.06,9.38,16.59,20.05,14.71,4.99-.88,10.01-5.6,12.87-11.17l-1.75-1.52Zm-32.94,8.61l-.86-2.23c-.86,.52-2.06,.95-3.09,.95-1.46,0-3.01-1.29-3.01-5.16v-15.99c0-4.47-.86-7.99-3.87-10.48-1.89-1.55-4.47-2.32-7.05-2.32-4.9,.95-10.49,4.3-12.89,6.02-1.63,1.2-2.75,2.15-2.75,3.44,0,1.98,2.23,3.7,3.78,3.7,1.2,0,2.15-.6,2.49-2.06,.69-2.58,1.46-4.47,2.58-5.59,.86-1.03,2.15-1.72,3.87-1.72,4.3,0,7.22,3.52,7.22,9.71v1.55c-1.89,1.55-8.16,3.87-13.32,5.59-4.73,1.63-6.96,4.3-6.96,8.51,0,5.42,4.21,10.48,10.31,10.48,2.58,0,6.7-3.18,10.14-5.5,.43,1.46,.95,2.66,2.06,3.87,.95,.86,2.75,1.63,4.04,1.63l7.3-4.38Zm-13.58-3.87c-1.63,1.55-4.64,3.01-6.87,3.09-2.66,0-6.1-2.15-6.1-6.62,0-3.09,1.89-4.73,5.24-6.27,1.8-.86,5.93-2.66,7.73-3.61v13.41Zm-22.59,7.22v-2.23c-5.5-.52-6.19-1.03-6.19-6.7V0c-2.92,1.03-8.25,2.49-12.72,3.01v2.06c5.41,.43,5.93,.69,5.93,6.53V52.25c0,5.67-.77,6.19-6.19,6.7v2.23h19.17ZM15.13,32.92h3.95c10.49,0,16.5,3.87,16.5,12.72s-6.27,12.55-13.32,12.63c-5.5,0-7.13-1.63-7.13-7.82v-17.53Zm0-2.84V13.24c0-2.84,.34-3.78,1.12-4.3,.86-.52,2.75-.86,4.9-.86,8.16,0,11.43,5.16,11.43,11,0,7.22-3.95,11-13.41,11h-4.04Z"/></svg>