<svg width="35" height="25" viewBox="0 0 35 25" fill="none" xmlns="http://www.w3.org/2000/svg">
<path d="M0 1.70833C0 1.25526 0.179985 0.820734 0.500359 0.50036C0.820734 0.179985 1.25526 0 1.70833 0H32.4583C32.9114 0 33.3459 0.179985 33.6663 0.50036C33.9867 0.820734 34.1667 1.25526 34.1667 1.70833C34.1667 2.16141 33.9867 2.59593 33.6663 2.91631C33.3459 3.23668 32.9114 3.41667 32.4583 3.41667H1.70833C1.25526 3.41667 0.820734 3.23668 0.500359 2.91631C0.179985 2.59593 0 2.16141 0 1.70833ZM0 12.013C0 11.5599 0.179985 11.1254 0.500359 10.805C0.820734 10.4847 1.25526 10.3047 1.70833 10.3047H32.4583C32.9114 10.3047 33.3459 10.4847 33.6663 10.805C33.9867 11.1254 34.1667 11.5599 34.1667 12.013C34.1667 12.4661 33.9867 12.9006 33.6663 13.221C33.3459 13.5413 32.9114 13.7213 32.4583 13.7213H1.70833C1.25526 13.7213 0.820734 13.5413 0.500359 13.221C0.179985 12.9006 0 12.4661 0 12.013ZM1.70833 20.6093C1.25526 20.6093 0.820734 20.7893 0.500359 21.1097C0.179985 21.4301 0 21.8646 0 22.3177C0 22.7707 0.179985 23.2053 0.500359 23.5256C0.820734 23.846 1.25526 24.026 1.70833 24.026H32.4583C32.9114 24.026 33.3459 23.846 33.6663 23.5256C33.9867 23.2053 34.1667 22.7707 34.1667 22.3177C34.1667 21.8646 33.9867 21.4301 33.6663 21.1097C33.3459 20.7893 32.9114 20.6093 32.4583 20.6093H1.70833Z" fill="black"/>
</svg>
