<svg width="39" height="37" viewBox="0 0 39 37" fill="none" xmlns="http://www.w3.org/2000/svg">
<path d="M19.4948 12.3307C15.9142 12.3307 12.9921 15.103 12.9921 18.5C12.9921 21.897 15.9142 24.6693 19.4948 24.6693C23.0754 24.6693 25.9974 21.897 25.9974 18.5C25.9974 15.103 23.0754 12.3307 19.4948 12.3307ZM38.9978 18.5C38.9978 15.9453 39.0222 13.4137 38.871 10.8636C38.7198 7.90159 38.0075 5.27281 35.7245 3.10685C33.4367 0.936258 30.6707 0.26518 27.5487 0.121708C24.8559 -0.0217641 22.1875 0.00137661 19.4996 0.00137661C16.8069 0.00137661 14.1385 -0.0217641 11.4506 0.121708C8.32855 0.26518 5.55773 0.940886 3.27473 3.10685C0.986848 5.27744 0.279509 7.90159 0.128284 10.8636C-0.0229401 13.4183 0.00145099 15.9499 0.00145099 18.5C0.00145099 21.0501 -0.0229401 23.5863 0.128284 26.1364C0.279509 29.0984 0.991727 31.7272 3.27473 33.8931C5.5626 36.0637 8.32855 36.7348 11.4506 36.8783C14.1434 37.0218 16.8117 36.9986 19.4996 36.9986C22.1924 36.9986 24.8608 37.0218 27.5487 36.8783C30.6707 36.7348 33.4415 36.0591 35.7245 33.8931C38.0124 31.7226 38.7198 29.0984 38.871 26.1364C39.0271 23.5863 38.9978 21.0547 38.9978 18.5V18.5ZM19.4948 27.9923C13.958 27.9923 9.48956 23.7529 9.48956 18.5C9.48956 13.2471 13.958 9.00771 19.4948 9.00771C25.0315 9.00771 29.5 13.2471 29.5 18.5C29.5 23.7529 25.0315 27.9923 19.4948 27.9923ZM29.9097 10.8358C28.617 10.8358 27.5731 9.8454 27.5731 8.61895C27.5731 7.3925 28.617 6.40208 29.9097 6.40208C31.2025 6.40208 32.2464 7.3925 32.2464 8.61895C32.2468 8.91018 32.1866 9.19861 32.0693 9.46774C31.952 9.73687 31.7799 9.9814 31.5629 10.1873C31.3458 10.3933 31.0881 10.5565 30.8044 10.6678C30.5207 10.7791 30.2167 10.8362 29.9097 10.8358V10.8358Z" fill="#C59407"/>
</svg>
