<svg width="48" height="68" viewBox="0 0 48 68" fill="none" xmlns="http://www.w3.org/2000/svg">
<g filter="url(#filter0_d_640_940)">
<path d="M34.0002 54.375H28.4445V40.6418C37.9544 38.7797 44.8406 31.2773 43.917 22.5762L41.7017 1.70508C41.5989 0.739453 40.653 0 39.5197 0H8.48032C7.34836 0 6.40112 0.739453 6.29973 1.70508L4.08303 22.5773C3.1594 31.2785 10.0456 38.7809 19.5555 40.643V54.375H13.9998C10.9317 54.375 8.44421 56.4738 8.44421 59.0625C8.44421 59.5805 8.94144 60 9.55533 60H38.4447C39.0586 60 39.5558 59.5805 39.5558 59.0625C39.5558 56.4738 37.0683 54.375 34.0002 54.375Z" fill="#FDB3AC"/>
</g>
<defs>
<filter id="filter0_d_640_940" x="0" y="0" width="48" height="68" filterUnits="userSpaceOnUse" color-interpolation-filters="sRGB">
<feFlood flood-opacity="0" result="BackgroundImageFix"/>
<feColorMatrix in="SourceAlpha" type="matrix" values="0 0 0 0 0 0 0 0 0 0 0 0 0 0 0 0 0 0 127 0" result="hardAlpha"/>
<feOffset dy="4"/>
<feGaussianBlur stdDeviation="2"/>
<feComposite in2="hardAlpha" operator="out"/>
<feColorMatrix type="matrix" values="0 0 0 0 0 0 0 0 0 0 0 0 0 0 0 0 0 0 0.25 0"/>
<feBlend mode="normal" in2="BackgroundImageFix" result="effect1_dropShadow_640_940"/>
<feBlend mode="normal" in="SourceGraphic" in2="effect1_dropShadow_640_940" result="shape"/>
</filter>
</defs>
</svg>
