<svg width="31" height="34" viewBox="0 0 31 34" fill="none" xmlns="http://www.w3.org/2000/svg">
<path d="M9.29744 26.5162C7.59291 26.5162 6.21379 28.0077 6.21379 29.8307C6.21379 31.6537 7.59291 33.1452 9.29744 33.1452C11.002 33.1452 12.3966 31.6537 12.3966 29.8307C12.3966 28.0077 11.002 26.5162 9.29744 26.5162ZM0 1.65726C0 2.56876 0.697308 3.31453 1.54957 3.31453H3.09915L8.67761 15.8931L6.58569 19.9369C5.4545 22.1576 6.94209 24.8589 9.29744 24.8589H26.3427C27.195 24.8589 27.8923 24.1132 27.8923 23.2017C27.8923 22.2902 27.195 21.5444 26.3427 21.5444H9.29744L11.002 18.2299H22.5463C23.7085 18.2299 24.7312 17.5504 25.258 16.5229L30.8055 5.76727C30.9361 5.51607 31.0031 5.23276 30.9999 4.94536C30.9967 4.65797 30.9233 4.37645 30.7871 4.12867C30.651 3.8809 30.4566 3.67545 30.2234 3.53265C29.9902 3.38986 29.7261 3.31467 29.4574 3.31453H6.5237L5.48549 0.944641C5.36095 0.661757 5.16364 0.422671 4.91665 0.255375C4.66967 0.0880793 4.38323 -0.00050192 4.09087 2.13927e-06H1.54957C0.697308 2.13927e-06 0 0.74577 0 1.65726ZM24.7932 26.5162C23.0886 26.5162 21.7095 28.0077 21.7095 29.8307C21.7095 31.6537 23.0886 33.1452 24.7932 33.1452C26.4977 33.1452 27.8923 31.6537 27.8923 29.8307C27.8923 28.0077 26.4977 26.5162 24.7932 26.5162Z" fill="#C59407"/>
</svg>
