<svg width="63" height="42" viewBox="0 0 63 42" fill="none" xmlns="http://www.w3.org/2000/svg">
<g filter="url(#filter0_d_362_603)">
<path d="M59 5.25244H51.2202C45.8302 1.76476 39.2357 0 31.5 0C23.7642 0 17.167 1.76476 11.7797 5.25244H4C5.177 6.35051 6.27425 8.75581 6.73075 10.5859C4.9675 12.8176 4.0097 15.531 4 18.3221C4 25.5302 10.1683 31.3944 17.75 31.3944C21.2566 31.3885 24.6268 30.1015 27.1632 27.7995L31.5 33.9879L35.8368 27.8021C38.3728 30.1051 41.743 31.393 45.25 31.3996C52.8317 31.3996 59 25.5354 59 18.3273C59 15.4201 57.9632 12.7585 56.2692 10.5885C56.7257 8.75843 57.823 6.35313 59 5.25506V5.25244ZM17.75 27.2139C12.5938 27.2139 8.4 23.2268 8.4 18.3247C8.4 13.4226 12.5938 9.43557 17.75 9.43557C22.9062 9.43557 27.1 13.4226 27.1 18.3247C27.1 23.2268 22.9062 27.2139 17.75 27.2139ZM31.5 18.3247C31.4953 15.3089 30.3958 12.3871 28.3871 10.0529C26.3783 7.71881 23.5837 6.11548 20.4753 5.51389C23.7863 4.45503 27.4575 3.92168 31.5 3.92168C35.5425 3.92168 39.2137 4.45503 42.5247 5.5165C39.4173 6.11792 36.6233 7.72047 34.6147 10.0535C32.6061 12.3866 31.5059 15.3072 31.5 18.3221V18.3247ZM45.25 27.2139C40.0938 27.2139 35.9 23.2268 35.9 18.3247C35.9 13.4226 40.0938 9.43557 45.25 9.43557C50.4062 9.43557 54.6 13.4226 54.6 18.3247C54.6 23.2268 50.4062 27.2139 45.25 27.2139ZM17.75 12.7063C14.4913 12.7063 11.8375 15.2266 11.8375 18.3273C11.8375 21.4281 14.4913 23.9484 17.75 23.9484C21.0087 23.9484 23.6625 21.4281 23.6625 18.3273C23.6625 15.2266 21.0087 12.7063 17.75 12.7063ZM17.75 20.0032C17.2759 20.0032 16.8213 19.8242 16.486 19.5055C16.1508 19.1868 15.9625 18.7545 15.9625 18.3038C15.9625 17.8531 16.1508 17.4209 16.486 17.1022C16.8213 16.7835 17.2759 16.6044 17.75 16.6044C18.2241 16.6044 18.6787 16.7835 19.014 17.1022C19.3492 17.4209 19.5375 17.8531 19.5375 18.3038C19.5375 18.7545 19.3492 19.1868 19.014 19.5055C18.6787 19.8242 18.2241 20.0032 17.75 20.0032ZM45.25 12.7063C41.9912 12.7063 39.3375 15.2266 39.3375 18.3273C39.3375 21.4281 41.9912 23.9484 45.25 23.9484C48.5088 23.9484 51.1625 21.4281 51.1625 18.3273C51.1625 15.2266 48.5088 12.7063 45.25 12.7063ZM45.25 20.0032C44.7759 20.0032 44.3213 19.8242 43.986 19.5055C43.6508 19.1868 43.4625 18.7545 43.4625 18.3038C43.4625 17.8531 43.6508 17.4209 43.986 17.1022C44.3213 16.7835 44.7759 16.6044 45.25 16.6044C45.7241 16.6044 46.1787 16.7835 46.514 17.1022C46.8492 17.4209 47.0375 17.8531 47.0375 18.3038C47.0375 18.7545 46.8492 19.1868 46.514 19.5055C46.1787 19.8242 45.7241 20.0032 45.25 20.0032Z" fill="#C59407"/>
</g>
<defs>
<filter id="filter0_d_362_603" x="0" y="0" width="63" height="41.9883" filterUnits="userSpaceOnUse" color-interpolation-filters="sRGB">
<feFlood flood-opacity="0" result="BackgroundImageFix"/>
<feColorMatrix in="SourceAlpha" type="matrix" values="0 0 0 0 0 0 0 0 0 0 0 0 0 0 0 0 0 0 127 0" result="hardAlpha"/>
<feOffset dy="4"/>
<feGaussianBlur stdDeviation="2"/>
<feComposite in2="hardAlpha" operator="out"/>
<feColorMatrix type="matrix" values="0 0 0 0 0 0 0 0 0 0 0 0 0 0 0 0 0 0 0.25 0"/>
<feBlend mode="normal" in2="BackgroundImageFix" result="effect1_dropShadow_362_603"/>
<feBlend mode="normal" in="SourceGraphic" in2="effect1_dropShadow_362_603" result="shape"/>
</filter>
</defs>
</svg>
