<svg width="48" height="68" viewBox="0 0 48 68" fill="none" xmlns="http://www.w3.org/2000/svg">
<g filter="url(#filter0_d_864_938)">
<path d="M34.0002 54.375H28.4445V40.6418C37.9544 38.7797 44.8406 31.2773 43.917 22.5762L41.7017 1.70508C41.5989 0.739453 40.653 0 39.5197 0H8.48032C7.34836 0 6.40112 0.739453 6.29973 1.70508L4.08303 22.5773C3.1594 31.2785 10.0456 38.7809 19.5555 40.643V54.375H13.9998C10.9317 54.375 8.44421 56.4738 8.44421 59.0625C8.44421 59.5805 8.94144 60 9.55533 60H38.4447C39.0586 60 39.5558 59.5805 39.5558 59.0625C39.5558 56.4738 37.0683 54.375 34.0002 54.375Z" fill="white"/>
<path d="M22.6669 9.02344C22.6669 11.0657 20.6729 12.8594 18.0279 12.8594C15.3829 12.8594 13.3889 11.0657 13.3889 9.02344C13.3889 6.98116 15.3829 5.1875 18.0279 5.1875C20.6729 5.1875 22.6669 6.98116 22.6669 9.02344Z" stroke="#E8E8E8"/>
<path d="M31.9725 30.8203C31.9725 32.8626 29.9786 34.6562 27.3335 34.6562C24.6885 34.6562 22.6946 32.8626 22.6946 30.8203C22.6946 28.778 24.6885 26.9844 27.3335 26.9844C29.9786 26.9844 31.9725 28.778 31.9725 30.8203Z" stroke="#E6E6E6"/>
<path d="M38.139 18.2227C38.139 19.6501 36.7358 20.9453 34.8195 20.9453C32.9032 20.9453 31.5 19.6501 31.5 18.2227C31.5 16.7952 32.9032 15.5 34.8195 15.5C36.7358 15.5 38.139 16.7952 38.139 18.2227Z" stroke="#E8E8E8"/>
<path d="M17.8057 23.2617C17.8057 24.1714 16.8999 25.0469 15.5973 25.0469C14.2947 25.0469 13.3889 24.1714 13.3889 23.2617C13.3889 22.3521 14.2947 21.4766 15.5973 21.4766C16.8999 21.4766 17.8057 22.3521 17.8057 23.2617Z" stroke="#DFDFDF"/>
<path d="M34.7505 6.73828C34.7505 7.64794 33.8448 8.52344 32.5421 8.52344C31.2395 8.52344 30.3337 7.64794 30.3337 6.73828C30.3337 5.82862 31.2395 4.95312 32.5421 4.95312C33.8448 4.95312 34.7505 5.82862 34.7505 6.73828Z" stroke="#D9D9D9"/>
</g>
<defs>
<filter id="filter0_d_864_938" x="0" y="0" width="48" height="68" filterUnits="userSpaceOnUse" color-interpolation-filters="sRGB">
<feFlood flood-opacity="0" result="BackgroundImageFix"/>
<feColorMatrix in="SourceAlpha" type="matrix" values="0 0 0 0 0 0 0 0 0 0 0 0 0 0 0 0 0 0 127 0" result="hardAlpha"/>
<feOffset dy="4"/>
<feGaussianBlur stdDeviation="2"/>
<feComposite in2="hardAlpha" operator="out"/>
<feColorMatrix type="matrix" values="0 0 0 0 0 0 0 0 0 0 0 0 0 0 0 0 0 0 0.25 0"/>
<feBlend mode="normal" in2="BackgroundImageFix" result="effect1_dropShadow_864_938"/>
<feBlend mode="normal" in="SourceGraphic" in2="effect1_dropShadow_864_938" result="shape"/>
</filter>
</defs>
</svg>
